<?xml version="1.0" encoding="UTF-8" standalone="no"?>
<!-- Created with Inkscape (http://www.inkscape.org/) -->

<svg
   xmlns:dc="http://purl.org/dc/elements/1.1/"
   xmlns:cc="http://creativecommons.org/ns#"
   xmlns:rdf="http://www.w3.org/1999/02/22-rdf-syntax-ns#"
   xmlns:svg="http://www.w3.org/2000/svg"
   xmlns="http://www.w3.org/2000/svg"
   xmlns:sodipodi="http://sodipodi.sourceforge.net/DTD/sodipodi-0.dtd"
   xmlns:inkscape="http://www.inkscape.org/namespaces/inkscape"
   width="744.09448819"
   height="1052.3622047"
   id="svg3043"
   version="1.1"
   inkscape:version="0.48.2 r9819"
   sodipodi:docname="paragonme3.eps">
  <defs
     id="defs3045" />
  <sodipodi:namedview
     id="base"
     pagecolor="#ffffff"
     bordercolor="#666666"
     borderopacity="1.0"
     inkscape:pageopacity="0.0"
     inkscape:pageshadow="2"
     inkscape:zoom="1.268"
     inkscape:cx="347.39295"
     inkscape:cy="500.37609"
     inkscape:document-units="px"
     inkscape:current-layer="layer1"
     showgrid="false"
     inkscape:window-width="1440"
     inkscape:window-height="852"
     inkscape:window-x="0"
     inkscape:window-y="0"
     inkscape:window-maximized="0" />
  <metadata
     id="metadata3048">
    <rdf:RDF>
      <cc:Work
         rdf:about="">
        <dc:format>image/svg+xml</dc:format>
        <dc:type
           rdf:resource="http://purl.org/dc/dcmitype/StillImage" />
        <dc:title></dc:title>
      </cc:Work>
    </rdf:RDF>
  </metadata>
  <g
     inkscape:label="Layer 1"
     inkscape:groupmode="layer"
     id="layer1">
    <path
       style="fill:#fff;stroke:#000000;stroke-width:1px;stroke-linecap:butt;stroke-linejoin:miter;stroke-opacity:1"
       d="m 294.10387,246.56885 c 7.25291,-8.85446 19.76381,61.16099 29.64572,91.74148 4.36054,20.04447 17.55165,34.87532 30.78077,51.9636 23.69904,22.24648 58.93935,44.55607 67.5668,47.7633 17.19961,9.18178 25.18654,16.52103 35.25746,24.27707 13.22015,12.86624 28.33263,25.2405 34.48016,35.5486 6.48035,9.77839 9.79425,20.15033 12.8094,29.0098 0.46838,1.37624 0.91258,2.99821 1.32927,4.30317 3.39294,10.62597 5.25671,18.93454 3.19079,21.75785 l -1.43038,0.54062 -41.36427,-13.33584 c -2.15999,-1.02557 -1.68403,-1.64649 -3.37047,1.01951 -1.1874,1.8771 -1.58512,5.81705 -3.93896,11.18423 -0.41968,3.79855 -2.85828,12.25704 0.3227,19.67877 1.64882,4.30395 6.86605,13.20085 9.24157,17.44779 1.22366,2.18763 2.40633,3.75263 1.24585,2.20936 0.36013,0.37326 0.0528,0.17055 0.49481,0.60734 3.90718,3.86084 13.21364,13.51893 13.21364,13.51893 0.59559,0.82474 1.44616,1.64949 0.94718,2.47423 l -1.79134,1.70673 c 0,0 -10.25932,7.88776 -14.74681,10.94476 -5.10956,3.48077 -7.89839,7.26103 -11.94075,10.07303 -4.04237,2.81201 -7.36666,5.44441 -11.18121,8.20675 -3.81455,2.76234 -8.11936,6.44328 -12.54547,9.77505 -4.42611,3.33177 -9.65699,7.38761 -15.52569,11.91874 -5.85468,4.5203 -12.02463,9.78963 -20.85677,16.11755 -8.39876,6.01742 -17.54568,13.85849 -28.84273,22.61313 -4.4339,3.43605 -10.56228,8.82182 -16.47996,13.51876 -6.89331,5.4713 -13.54106,12.03657 -20.67484,16.65888 -3.98091,2.57942 -5.30998,-3.70372 -5.76511,-3.36098 l -8.77194,-63.23944 0.23766,-1.91476 22.13019,-22.17231 -35.80522,-26.29055 -36.90694,-45.85408 -16.72592,-39.71125 -9.40609,-29.62907 -2.94619,-42.49891 5.0744,-66.53602 12.81987,-94.51247 2.52055,-14.66433 c 0.69149,-1.23252 1.02554,-2.36778 3.07142,0.12523 l 16.43825,34.8104 1.22812,3.11682 c 0.31687,1.05896 1.51975,3.92757 1.3463,2.3349 0.50102,1.01018 0.44784,-0.7871 0.82922,-2.6478 0.2241,-1.09333 0.41988,-2.30056 0.53125,-3.29869 z"
       id="path3081"
       inkscape:connector-curvature="0"
       sodipodi:nodetypes="ccccccsscccsccscscccsssssssssccccccccccccccccscc" />
    <path
       style="fill:#733fd7;stroke:#000000;stroke-width:1px;stroke-linecap:butt;stroke-linejoin:miter;stroke-opacity:1"
       d="m 301.41263,348.60134 c 0.0596,-2.4102 1.05705,-3.25715 3.34593,-1.9518 l 6.97069,19.79676 12.82607,22.30621 16.172,19.51793 16.72966,15.61434 22.86386,17.28731 21.1909,11.71076 23.42152,12.26842 18.40262,14.49903 15.05669,13.38373 7.30144,9.24929 6.30914,9.46372 c 0.58537,2.11489 0.49363,3.72196 -1.9716,3.5489 l -8.36982,-1.73371 c -2.17427,-0.15594 -2.6199,-0.54451 -3.64174,0.23941 l -1.90244,0.50187 -5.80209,6.90725 -6.77185,8.3186 -4.66348,9.03156 -3.15458,7.09779 -0.39432,4.33754 -0.39432,11.43533 1.57729,10.64669 2.36593,10.64669 4.73186,11.04101 5.5205,9.0694 c 0.57218,0.52576 0.77921,1.05153 0,1.57729 l -29.57413,23.26498 c -0.94152,0.92241 -1.38692,-0.13966 -1.97161,-0.64459 l -1.97161,-4.48159 -2.36593,-14.58991 -1.18296,-9.46372 -1.18297,-18.1388 0.39432,-21.6877 1.18297,-16.16719 2.36593,-15.77287 4.33754,-14.58991 1.18296,-4.73186 0,-2.76025 -0.78864,-1.97161 -3.15457,-1.97161 -16.1672,-9.46372 -26.81388,-18.53312 -19.32176,-14.58991 -18.53313,-20.50473 -13.80126,-19.71609 -9.46372,-20.11041 -7.09779,-20.11041 -2.36593,-14.98423 z"
       id="path3112"
       inkscape:connector-curvature="0"
       sodipodi:nodetypes="ccccccccccccccccccccccccccccccccccccccccccccccccccc" />
    <path
       style="fill:#733fd7;stroke:#000000;stroke-width:1px;stroke-linecap:butt;stroke-linejoin:miter;stroke-opacity:1"
       d="m 268.23215,367.00395 c 0.56794,-2.27215 1.7155,-1.64617 2.78828,-1.39414 l 10.31661,22.58504 14.77787,24.258 6.69186,10.03779 8.36483,10.31663 9.48013,11.71075 8.92249,7.80718 12.82607,13.38372 11.71076,10.0378 15.33551,10.03779 9.75897,6.97069 12.82607,9.48014 8.64365,5.01889 1.9518,1.11531 1.11531,1.67297 0.83648,1.95179 -2.50945,10.31662 -2.50945,9.20131 -1.95179,12.82607 -1.11531,12.54725 -0.0186,15.35408 0.0186,15.87461 0.55766,7.79789 2.50944,13.67183 1.9518,14.22021 3.62476,10.59545 0.27882,2.50945 -0.83648,1.95179 -3.0671,2.78827 -12.26842,10.31663 -15.61434,12.26841 -16.172,12.26841 -10.31662,7.80718 -2.78828,0.55765 -1.39414,-1.11531 -1.11531,-1.95179 -0.55765,-9.75897 0,-2.23062 1.39413,-1.39414 12.82607,-14.2202 8.36483,-10.0378 6.41304,-9.20131 0,-2.78827 -0.83649,-1.11531 -3.0671,-2.50945 -11.1531,-6.69186 -12.26842,-7.80718 -7.80717,-5.57655 -10.59545,-8.92248 -8.64365,-7.24952 -8.64366,-9.20131 -7.24952,-8.086 -8.36483,-10.31662 -6.69186,-11.15311 -6.1342,-10.87427 -4.74007,-12.54724 -3.62476,-9.20131 -1.03365,-4.06693 c 0.0578,-1.10508 0.42343,-1.69705 1.5913,-0.95197 l 6.13421,7.24952 7.24952,10.03779 8.92248,8.36483 9.20131,8.64365 10.31662,7.80718 9.48014,6.41303 10.31662,7.24952 11.15311,6.13421 14.77786,8.64365 9.20131,3.34593 c 0.81438,-0.0738 2.72101,0.34698 2.99739,-0.27883 0.87504,-0.75008 0.31973,-1.71073 0.62737,-2.50944 l -0.27883,-6.97069 c -0.24744,-1.51847 -1.67297,-1.85885 -2.50945,-2.78828 l -8.64365,-4.18241 -13.38373,-7.24952 -13.38372,-7.80717 -10.87428,-7.24952 -9.75897,-6.97069 -8.92248,-7.52835 -9.75896,-8.92248 -7.80718,-9.20131 -7.52834,-10.87428 -3.90359,-6.41303 -4.18241,-8.086 -3.34593,-7.80717 -3.62476,-12.26842 -2.23062,-10.87427 -0.27883,-14.49904 0.67315,-9.9223 c 0.87259,-0.8057 1.29326,-2.35137 2.67278,-0.11549 l 2.50945,9.75896 3.62476,9.48014 5.01889,10.31662 6.13421,10.31662 7.52835,9.48014 8.086,10.59545 9.20131,7.80717 8.36483,7.52835 8.36482,5.85538 12.26842,6.97069 9.20131,5.29772 11.1531,5.85538 9.20131,4.74007 4.18242,1.11531 3.34593,0.55766 1.39414,-0.55766 1.11531,-1.95179 0,-4.74007 -1.47581,-3.33192 -1.87013,-1.68698 -9.48013,-5.29772 -9.20131,-5.29773 -11.15311,-6.1342 -10.87427,-7.80718 -10.31663,-8.36482 -11.1531,-9.48014 -6.41303,-6.97069 -6.41304,-7.80718 -6.13421,-8.36482 -6.1342,-10.0378 -3.62476,-8.64365 -3.90359,-12.54724 -2.78827,-13.1049 -2.50945,-10.59545 -1.93779,-10.79261 -1.11531,-9.11964 -0.57166,-12.71058 z"
       id="path3114"
       inkscape:connector-curvature="0"
       sodipodi:nodetypes="ccccccccccccccccccccccccccccccccccccccccccccccccccccccccccccccccccccccccccccccccccccccccccccccccccccccccccccccccccccccccccccccccc" />
  </g>
</svg>
